<svg xmlns="http://www.w3.org/2000/svg" width="29.356" height="51.127" viewBox="0 0 29.356 51.127">
  <g id="svgg" transform="translate(-111.212 -36.4)">
    <path id="path0" d="M123.8,36.462c0,.035-.166.062-.374.062s-.374.028-.374.062-.14.062-.312.062-.312.028-.312.062-.112.062-.249.062-.249.028-.249.062-.084.062-.187.062-.187.028-.187.062-.056.062-.125.062a.625.625,0,0,0-.234.054,4.377,4.377,0,0,1-.685.24c-.077.018-.14.066-.14.108s-.067.066-.187.048-.187,0-.187.042-.056.069-.125.069-.125.028-.125.062-.056.062-.125.062-.125.028-.125.062-.056.062-.125.062-.125.028-.125.062a.074.074,0,0,1-.082.062.454.454,0,0,0-.215.125.469.469,0,0,1-.2.125c-.035,0-.1.056-.142.125a.256.256,0,0,1-.174.125.291.291,0,0,0-.186.125.292.292,0,0,1-.187.125.292.292,0,0,0-.187.125.288.288,0,0,1-.176.125.6.6,0,0,0-.261.187.639.639,0,0,1-.245.187,1.269,1.269,0,0,0-.351.28,1.5,1.5,0,0,1-.334.28c-.029,0-.069.058-.087.129s-.075.12-.127.109a1.766,1.766,0,0,0-.664.639,2.728,2.728,0,0,1-.436.495,2.53,2.53,0,0,0-.436.5.634.634,0,0,1-.187.246.575.575,0,0,0-.187.285c0,.061-.017.093-.038.072-.046-.046-.336.287-.336.385,0,.038-.023.069-.052.069s-.092.077-.14.171a1.666,1.666,0,0,1-.2.292.423.423,0,0,0-.109.182.441.441,0,0,1-.109.186c-.06.069-.074.1-.031.079s.078-.016.078.02a.064.064,0,0,1-.062.066c-.034,0-.062.05-.062.111a.3.3,0,0,1-.125.2.3.3,0,0,0-.125.2c0,.061-.028.111-.062.111s-.062.056-.062.125-.028.125-.062.125-.062.054-.062.12-.021.129-.047.14a1.743,1.743,0,0,0-.327.681c0,.065-.028.119-.062.119s-.062.056-.062.125S112.3,46,112.27,46s-.062.084-.062.187-.028.187-.062.187-.062.084-.062.187-.028.187-.062.187-.062.084-.062.187-.028.187-.062.187-.062.084-.062.187-.028.187-.062.187-.062.1-.062.214a.389.389,0,0,1-.062.253.38.38,0,0,0-.062.249.38.38,0,0,1-.062.249.742.742,0,0,0-.062.378c0,.187-.028.339-.062.339s-.063.193-.063.452c0,.315-.019.424-.061.358a7.919,7.919,0,0,0-.06,1.683,7.919,7.919,0,0,0,.06,1.683c.042-.065.061.044.061.358,0,.259.028.452.063.452s.062.153.062.339a.742.742,0,0,0,.062.378.38.38,0,0,1,.062.249.38.38,0,0,0,.062.249.389.389,0,0,1,.062.253c0,.118.028.214.062.214s.062.084.062.187.028.187.062.187.062.112.062.249.028.249.062.249.062.084.062.187.028.187.062.187.062.056.062.125.035.125.078.126.047.021-.016.061-.067.061-.016.061.078.051.078.113c0,.139.139.448.2.448.026,0,.047.057.047.125s.028.125.062.125.062.084.062.187.028.187.062.187.062.056.062.125.028.125.062.125.062.056.062.125.028.125.062.125.062.084.062.187.028.187.062.187.062.056.062.125.028.125.062.125.062.049.063.109a1.5,1.5,0,0,0,.156.416,1.637,1.637,0,0,1,.156.388c0,.045.037.067.083.049.062-.024.077.021.058.173s-.01.183.041.112.066-.069.067.047c0,.077.029.14.063.14s.062.056.062.125.028.125.062.125.062.056.062.125.028.125.062.125.062.056.062.125.028.125.062.125.062.056.062.125.028.125.062.125.062.05.062.111a.3.3,0,0,0,.125.2.3.3,0,0,1,.125.2c0,.061.028.111.062.111s.062.056.062.125.028.125.062.125a.073.073,0,0,1,.062.08.287.287,0,0,0,.125.17.3.3,0,0,1,.125.2c0,.061.028.111.062.111s.062.056.062.125.028.125.062.125.062.05.062.111a.3.3,0,0,0,.125.2.3.3,0,0,1,.125.2c0,.061.028.111.062.111s.062.046.062.1a.378.378,0,0,0,.134.218c.08.069.1.116.053.116s-.06.025.011.109a1.8,1.8,0,0,1,.2.334,1.069,1.069,0,0,0,.2.3.261.261,0,0,1,.095.164c0,.047.028.086.062.086s.062.056.062.125.028.125.062.125.063.063.063.14c0,.113.012.122.061.047s.061-.067.061.047c0,.077.029.14.063.14s.062.056.062.125.028.125.062.125.062.056.062.125.028.125.062.125.063.063.063.14c0,.113.012.122.061.047s.061-.067.061.047c0,.077.029.14.063.14s.062.056.062.125.028.125.062.125.062.056.062.125.028.125.062.125.062.042.062.093a.255.255,0,0,0,.125.171.264.264,0,0,1,.125.187c0,.06.028.11.062.11s.062.056.062.125.028.125.062.125.062.056.062.125.028.125.062.125.062.056.062.125.028.125.062.125.062.049.063.109a.829.829,0,0,0,.094.288.814.814,0,0,1,.093.265c0,.048.028.086.062.086s.062.056.062.125.028.125.062.125.062.072.062.16.027.143.059.123c.081-.05.19.169.191.384,0,.136.014.155.061.082s.061-.045.061.109c0,.111.029.2.063.2s.062.056.062.125.028.125.062.125.062.056.062.125.028.125.062.125.062.056.062.125.035.125.078.126.047.021-.016.061-.067.061-.016.061.078.057.078.126.028.125.062.125.062.056.062.125.035.125.078.126.047.021-.016.061-.067.061-.016.061.078.057.078.126.028.125.062.125.062.042.062.093.025.093.055.093.055.076.055.169.032.179.07.192a.154.154,0,0,1,.07.143c0,.066.028.12.062.12s.062.084.062.187.028.187.062.187.062.084.062.187.028.187.062.187.062.084.062.187.028.187.062.187.062.084.062.187.028.187.062.187.062.068.062.151a.222.222,0,0,0,.078.187c.056.026.058.046.007.07-.093.045-.032.278.073.278.058,0,.071.07.047.249-.022.164-.009.249.037.249s.071.1.071.222.025.206.062.183.062.071.062.242a.559.559,0,0,0,.062.319.32.32,0,0,1,.062.222c0,.1.023.183.05.183s.057.119.066.265a.727.727,0,0,0,.074.324.727.727,0,0,1,.06.343c0,.206.017.258.061.19s.061.027.062.312.02.377.062.312.061.027.062.312.02.377.062.312.061,0,.061.234c0,.18.029.327.063.327s.062.1.062.218.028.218.062.218.062.14.062.312.028.312.062.312.062.056.062.125-.028.125-.062.125-.062.14-.062.312-.028.312-.062.312-.062.166-.062.374-.028.374-.062.374-.062.175-.062.4a.965.965,0,0,1-.062.44,6.032,6.032,0,0,0,.016,1.847c.079.149.3.237.3.12,0-.039.1-.05.265-.028.344.047.546-.105.661-.5.085-.288.258-.4.258-.167a.208.208,0,0,0,.062.16c.081.05.08.38,0,.534-.045.083-.045.121,0,.121s.065.042.065.093a.094.094,0,0,0,.095.093c.07,0,.084.041.055.157s-.021.15.068.115.1-.015.07.108c-.021.082-.024.121-.007.086s.215-.054.485-.041c.677.034.819-.114.882-.921a22.6,22.6,0,0,0-.17-3.681c-.187-1.541-.223-1.347.514-2.836.356-.72.664-1.323.683-1.34a2.006,2.006,0,0,0,.166-.28c.072-.137.191-.355.265-.483l.251-.436c.511-.889,1.73-2.765,1.952-3a.412.412,0,0,0,.113-.2.11.11,0,0,1,.05-.1,1.8,1.8,0,0,0,.26-.332c.214-.318,1.994-2.717,2.058-2.774.019-.017.169-.213.333-.436s.331-.447.372-.5c.156-.194,1.523-2.035,1.667-2.244.083-.12.184-.26.225-.312.339-.424,1.953-2.772,1.953-2.841a5.171,5.171,0,0,1,.312-.494,4.351,4.351,0,0,0,.312-.5.787.787,0,0,1,.118-.205c.065-.091.187-.292.272-.446l.36-.654c.238-.431,1.058-2.076,1.058-2.122a7.371,7.371,0,0,1,.317-.73.565.565,0,0,0,.057-.221.309.309,0,0,1,.051-.172,3.173,3.173,0,0,0,.194-.527c.079-.257.166-.524.194-.592A3.8,3.8,0,0,0,139.61,57a1.658,1.658,0,0,1,.086-.312,1.9,1.9,0,0,0,.091-.374c.02-.137.064-.418.1-.623a18.447,18.447,0,0,0-.129-6.358c-.037-.171-.082-.417-.1-.546a.547.547,0,0,0-.089-.268.3.3,0,0,1-.056-.205.45.45,0,0,0-.051-.23,1.694,1.694,0,0,1-.133-.4,2.346,2.346,0,0,0-.123-.405,2,2,0,0,1-.121-.312,5.77,5.77,0,0,0-.283-.726,1.656,1.656,0,0,1-.1-.265,20.708,20.708,0,0,0-1.074-2.079.39.39,0,0,1-.026-.265c.025-.126.012-.187-.039-.188s-.043-.023.017-.064.048-.053-.081-.023c-.163.038-.172.03-.134-.12s.016-.167-.123-.2-.155-.068-.125-.162c.037-.116-.163-.363-.293-.363-.029,0-.053-.055-.053-.122a.519.519,0,0,0-.156-.278.552.552,0,0,1-.156-.225c0-.038-.028-.052-.062-.03s-.062-.006-.062-.061a12.3,12.3,0,0,0-1.888-1.868c-.043.017-.119-.029-.17-.1-.172-.245-.287-.362-.376-.381a.793.793,0,0,1-.255-.191.564.564,0,0,0-.252-.171.288.288,0,0,1-.176-.125A.315.315,0,0,0,133,38.83c-.1,0-.11-.012-.033-.061s.067-.061-.047-.061c-.077,0-.14-.029-.14-.063s-.05-.062-.111-.062a.3.3,0,0,1-.2-.125.3.3,0,0,0-.2-.125c-.061,0-.111-.028-.111-.062s-.056-.062-.125-.062-.125-.028-.125-.062-.063-.063-.14-.063c-.113,0-.122-.012-.047-.061s.039-.061-.125-.062-.195-.017-.125-.062.04-.062-.125-.066c-.12,0-.181-.021-.136-.039.1-.041-.2-.207-.37-.207-.065,0-.117-.028-.117-.062s-.054-.062-.121-.062a.211.211,0,0,1-.163-.067c-.023-.037-.109-.051-.191-.03s-.149.013-.149-.016c0-.076-.29-.2-.47-.2-.084,0-.153-.028-.153-.062s-.084-.062-.187-.062-.187-.028-.187-.062-.07-.062-.156-.062-.156-.028-.156-.062-.082-.062-.182-.062-.2-.035-.213-.078c-.025-.062-.032-.062-.036,0a.079.079,0,0,1-.071.078c-.036,0-.049-.028-.027-.062s-.062-.062-.214-.062-.253-.029-.254-.078-.021-.047-.061.016-.061.067-.061.016-.118-.078-.375-.078c-.208,0-.374-.028-.374-.062a19.509,19.509,0,0,0-3.117,0m3.179,2.987a9.973,9.973,0,0,1,1.947.444.515.515,0,0,0,.2.059c.092,0,.158.026.451.177a.644.644,0,0,0,.2.072,5.982,5.982,0,0,1,1,.432,14.221,14.221,0,0,1,7.3,13.966,14.455,14.455,0,0,1-1.011,3.879.5.5,0,0,0-.055.172,16.591,16.591,0,0,1-.776,1.745,25.366,25.366,0,0,1-1.726,2.981.094.094,0,0,0-.053.082c0,.068-1.1,1.715-1.592,2.391-.283.387-1.047,1.423-1.421,1.928-.12.162-.322.417-.509.641-.035.041-.154.2-.265.343s-.377.495-.592.773-.46.6-.546.711-.185.237-.22.274a3.555,3.555,0,0,0-.215.286,2.489,2.489,0,0,1-.188.249,2.457,2.457,0,0,0-.187.249,2.357,2.357,0,0,1-.188.249c-.058.048-1.314,1.787-1.62,2.244a2.726,2.726,0,0,1-.323.426.094.094,0,0,0-.051.082,3.543,3.543,0,0,1-.432.676,1.237,1.237,0,0,0-.126.187c-.05.086-.276.464-.5.841s-.517.882-.646,1.122c-.348.648-.387.638-.6-.156-.042-.154-.1-.351-.123-.436s-.082-.282-.124-.436-.1-.337-.125-.405-.082-.251-.124-.405a2.681,2.681,0,0,0-.132-.389.534.534,0,0,1-.056-.2.506.506,0,0,0-.061-.2c-.033-.06-.173-.45-.31-.867A35.24,35.24,0,0,0,121.52,69.4a4.942,4.942,0,0,1-.275-.634.1.1,0,0,0-.047-.086,4.246,4.246,0,0,1-.344-.613c-.3-.6-.573-1.109-.867-1.621-.088-.154-.244-.435-.346-.623s-.278-.5-.39-.686c-.23-.385-.4-.682-.758-1.316a2.819,2.819,0,0,0-.154-.242c-.038-.051-.14-.22-.227-.374-.365-.653-.872-1.532-.916-1.589-.075-.1-.65-1.191-1.315-2.5a20.18,20.18,0,0,1-1.744-4.383c-.042-.189-.1-.424-.13-.524a1.754,1.754,0,0,1-.055-.417,1.39,1.39,0,0,0-.066-.409,11.194,11.194,0,0,1-.066-1.642,11.194,11.194,0,0,1,.066-1.642,1.39,1.39,0,0,0,.066-.409,1.754,1.754,0,0,1,.055-.417c.03-.1.089-.335.13-.524a13.264,13.264,0,0,1,2.214-4.727,11.7,11.7,0,0,1,4.4-3.611,4.847,4.847,0,0,1,.76-.326.174.174,0,0,0,.136-.062.209.209,0,0,1,.16-.062.592.592,0,0,0,.23-.056,2.68,2.68,0,0,1,.389-.132c.154-.042.351-.1.436-.125a14.07,14.07,0,0,1,1.4-.246,16.416,16.416,0,0,1,2.711.055m-1.932,6.395c-1.087.209-1.66.66-1.48,1.164a.241.241,0,0,1-.2.3,5.494,5.494,0,0,0-1.586.872,3.433,3.433,0,0,0-.623.648,3.221,3.221,0,0,0-.6,1.121.205.205,0,0,1-.046.127,5.413,5.413,0,0,0-.148,2.219c.03.12.091.381.135.58a1.217,1.217,0,0,0,.132.393.162.162,0,0,1,.052.126,3.709,3.709,0,0,0,.449.948.107.107,0,0,1,.05.093,1.815,1.815,0,0,0,.265.423c1.992,2.643,4.905,3,7.088.865a5.027,5.027,0,0,0,.5-.561,2.936,2.936,0,0,1,.184-.249,7.631,7.631,0,0,0,1.059-2.671c.29-1.463-.014-3.671-.558-4.06A.737.737,0,0,1,129.6,48a5.5,5.5,0,0,0-2.683-2.014,3.766,3.766,0,0,0-1.87-.144m1.761,3.253a.882.882,0,0,1-.281,0c-.077-.015-.014-.027.14-.027s.217.012.14.027m.234.233a.262.262,0,0,0,.057.187c.031.019.041-.026.021-.1-.024-.092-.012-.12.037-.09a.175.175,0,0,1,.072.134.092.092,0,0,0,.093.09.11.11,0,0,1,.093.12.184.184,0,0,0,.125.16c.087.028.125.094.125.222,0,.1.028.183.062.183s.062.112.062.249.028.249.062.249.062.112.062.249-.028.249-.062.249a.064.064,0,0,0-.062.066c0,.036.028.049.062.027s.062.005.062.059-.028.1-.062.1-.062.14-.062.312-.028.312-.062.312-.062.056-.062.125-.028.125-.062.125-.062.084-.062.187-.028.187-.062.187-.062.038-.062.084a.366.366,0,0,1-.125.2.366.366,0,0,0-.125.2c0,.046-.028.084-.062.084s-.062.043-.062.1a.522.522,0,0,1-.157.253c-.086.086-.138.188-.115.225s.014.05-.022.029-.116.023-.179.1-.076.1-.027.061c.126-.111.216-.1.1.016a.316.316,0,0,1-.178.093.288.288,0,0,0-.174.125.3.3,0,0,1-.2.125c-.061,0-.111.028-.111.062s-.112.062-.249.062-.249.028-.249.062-.044.062-.1.062-.08-.028-.059-.062-.062-.062-.214-.062-.253-.028-.253-.062-.056-.062-.125-.062-.125-.028-.125-.062-.045-.062-.1-.062a.583.583,0,0,1-.274-.187.631.631,0,0,0-.248-.187.311.311,0,0,1-.166-.093c-.057-.057-.066-.093-.022-.093s.044-.028-.011-.085a2.088,2.088,0,0,1-.429-.586c-.057-.129-.1-.17-.134-.12s-.048-.019-.049-.143c0-.164-.017-.195-.062-.125s-.061.045-.061-.109c0-.111-.029-.2-.063-.2s-.062-.14-.062-.312-.028-.312-.062-.312-.062-.14-.062-.312.028-.312.062-.312.062-.106.062-.236a.361.361,0,0,1,.125-.325.287.287,0,0,0,.125-.167,1.6,1.6,0,0,1,.623-.58c.083,0,.083-.009,0-.063s-.067-.061.047-.061c.077,0,.14-.029.14-.063s.056-.062.125-.062.125-.028.125-.062.084-.062.187-.062.187-.033.188-.078.021-.047.061.016.061.067.061.016.109-.078.328-.079.3-.018.234-.061.209-.061.826-.061h.919v.152m-4.756,35.361c-.016.06-.029.011-.029-.109s.013-.169.029-.109a.515.515,0,0,1,0,.218" transform="translate(0 0)" fill="#040404" fill-rule="evenodd"/>
    <path id="path1" d="M138.585,56.537a1.57,1.57,0,0,1-.37.058,1.871,1.871,0,0,0-.405.064c-.105.032-.318.091-.472.131a2.546,2.546,0,0,0-.389.129.686.686,0,0,1-.265.056c-.086,0-.157.028-.157.062s-.056.062-.125.062a.663.663,0,0,0-.249.062l-.248.125a.6.6,0,0,1-.218.062c-.052,0-.094.028-.094.062s-.056.062-.125.062-.125.028-.125.062-.056.062-.125.062-.125.022-.125.048-.105.1-.234.155a12.041,12.041,0,0,0-3.63,3.1,2.256,2.256,0,0,1-.19.246,13.863,13.863,0,0,0-1.665,3.117,12.758,12.758,0,0,0-.709,5.859c.043.326.092.718.111.873a.9.9,0,0,0,.089.34.371.371,0,0,1,.056.211,3.137,3.137,0,0,0,.187.789c.027.069.085.251.13.405.084.289.62,1.636.778,1.957a.861.861,0,0,1,.089.265c0,.046.028.084.062.084a.071.071,0,0,1,.062.078,17.07,17.07,0,0,0,.81,1.667,2.867,2.867,0,0,1,.188.343c.085.171.229.438.32.592.434.736,1.238,2.2,1.238,2.248a.057.057,0,0,0,.055.058c.03,0,.071.049.091.109a3.217,3.217,0,0,0,.228.421,3.214,3.214,0,0,1,.228.421c.02.06.055.109.079.109s.082.1.129.218.108.218.136.218a.061.061,0,0,1,.051.067,1.3,1.3,0,0,0,.187.338,2.009,2.009,0,0,1,.187.3,3.5,3.5,0,0,0,.21.394,25.923,25.923,0,0,1,1.473,2.8c0,.047.021.085.047.085.055,0,.2.3.2.412a.112.112,0,0,0,.047.1,1.153,1.153,0,0,1,.181.3c.292.611.52,1.116.52,1.15a2.145,2.145,0,0,0,.118.3c.179.4.407,1.009.627,1.667.109.326.224.641.256.7a.554.554,0,0,1,.059.221.294.294,0,0,0,.055.172,2.811,2.811,0,0,1,.2.527,3.028,3.028,0,0,0,.194.527.438.438,0,0,1,.053.23.3.3,0,0,0,.062.209.253.253,0,0,1,.062.187.253.253,0,0,0,.062.187.253.253,0,0,1,.062.187.253.253,0,0,0,.062.187.313.313,0,0,1,.062.218.313.313,0,0,0,.062.218.313.313,0,0,1,.062.218.312.312,0,0,0,.062.218.3.3,0,0,1,.062.209.417.417,0,0,0,.056.23.41.41,0,0,1,.078.176c.014.076.173-.154.453-.654.237-.424.51-.889.608-1.032a1.228,1.228,0,0,0,.177-.327.065.065,0,0,1,.062-.067c.034,0,.062-.042.062-.093s.028-.094.062-.094.062-.042.062-.093.028-.093.062-.093.062-.042.062-.094.023-.093.052-.093.092-.077.14-.171a1.668,1.668,0,0,1,.2-.292.432.432,0,0,0,.109-.176.288.288,0,0,1,.078-.14c.043-.047.274-.369.514-.716.465-.673,1.428-1.967,1.565-2.1a1.715,1.715,0,0,0,.192-.267c.06-.1.131-.185.158-.185a.056.056,0,0,0,.049-.062c0-.055.093-.186.282-.4.035-.039.23-.3.434-.57s.394-.527.421-.561l.366-.467c.174-.223.363-.461.42-.53s.173-.223.256-.343a3.057,3.057,0,0,1,.186-.249c.019-.017.16-.2.314-.405s.294-.388.311-.405.157-.213.31-.436.3-.433.333-.467.171-.234.314-.443l.711-1.042a5.66,5.66,0,0,0,.452-.725.06.06,0,0,1,.055-.064c.03,0,.09-.084.132-.187s.1-.187.132-.187a.063.063,0,0,0,.055-.068.651.651,0,0,1,.117-.234c.064-.091.181-.278.258-.415l.422-.748a21.8,21.8,0,0,0,1.26-2.57.072.072,0,0,1,.062-.079c.034,0,.062-.054.062-.121a.208.208,0,0,1,.062-.16.26.26,0,0,0,.062-.191c0-.084.028-.152.062-.152s.062-.055.062-.122a.868.868,0,0,1,.057-.265,11.563,11.563,0,0,0,.449-1.421,13.532,13.532,0,0,0,.273-1.34,17.029,17.029,0,0,0,.1-3.459,11.848,11.848,0,0,0-.323-1.885.6.6,0,0,1-.056-.231.89.89,0,0,0-.056-.266c-.031-.079-.09-.269-.132-.424a3.6,3.6,0,0,0-.256-.7.6.6,0,0,1-.055-.23.209.209,0,0,0-.062-.16.208.208,0,0,1-.062-.16c0-.067-.028-.121-.062-.121s-.062-.042-.062-.094a.546.546,0,0,0-.055-.2l-.2-.389c-.158-.314-.411-.784-.615-1.142-.175-.306-.847-1.307-.954-1.42-.045-.048-.164-.2-.264-.33a22.6,22.6,0,0,0-1.689-1.72,11.194,11.194,0,0,0-2.4-1.53c-.257-.125-.516-.252-.576-.283a.529.529,0,0,0-.2-.057c-.052,0-.094-.028-.094-.062s-.068-.062-.152-.062a.26.26,0,0,1-.191-.062.253.253,0,0,0-.187-.062.253.253,0,0,1-.187-.062.253.253,0,0,0-.187-.062.256.256,0,0,1-.183-.055.475.475,0,0,0-.237-.091l-.421-.073a1.893,1.893,0,0,1-.343-.093,19.628,19.628,0,0,0-3.771-.126m13.837,4.3a.063.063,0,0,0,.062.062c.034,0,.062.044.062.1,0,.123.178.307.237.244.024-.026.009-.06-.034-.075a.134.134,0,0,1-.078-.121c0-.09-.142-.271-.214-.271-.02,0-.036.028-.036.062m.374.623a.063.063,0,0,0,.062.062c.034,0,.062.056.062.125s.028.125.062.125.062.056.062.125.028.125.062.125.062.056.062.125.028.125.062.125.062.056.062.125.028.125.062.125.062.049.063.109a.828.828,0,0,0,.093.288.873.873,0,0,1,.093.237,1.511,1.511,0,0,0,.125.316,1.258,1.258,0,0,1,.125.367.191.191,0,0,0,.062.148.26.26,0,0,1,.062.191c0,.084.028.152.062.152s.062.1.062.218.028.218.062.218.062.1.062.218.028.218.062.218.062.11.062.246a.465.465,0,0,0,.062.284.38.38,0,0,1,.062.249.4.4,0,0,0,.055.244.877.877,0,0,1,.094.362c.021.181.067.511.1.733a19.5,19.5,0,0,1-.127,5.8c-.036.189-.081.448-.1.577a.55.55,0,0,1-.09.269.393.393,0,0,0-.056.245.38.38,0,0,1-.062.249.313.313,0,0,0-.062.218.313.313,0,0,1-.062.218.253.253,0,0,0-.062.187.253.253,0,0,1-.062.187.2.2,0,0,0-.062.151,4.1,4.1,0,0,1-.317.892.492.492,0,0,0-.057.17,18.9,18.9,0,0,1-1.074,2.246c-.12.223-.285.531-.367.686a3.1,3.1,0,0,1-.18.312,2.512,2.512,0,0,0-.292.514c-.019.06-.059.109-.09.109a.062.062,0,0,0-.055.067,1.3,1.3,0,0,1-.187.338,1.861,1.861,0,0,0-.187.308c0,.047-.818,1.288-.919,1.4a.276.276,0,0,0-.078.136.273.273,0,0,1-.082.136c-.045.045-.232.307-.416.581a3.847,3.847,0,0,1-.386.519.117.117,0,0,0-.051.1.121.121,0,0,1-.047.1,2.3,2.3,0,0,0-.452.609c0,.036-.022.066-.049.066s-.1.085-.16.189a2.061,2.061,0,0,1-.263.34.687.687,0,0,0-.151.189,1.346,1.346,0,0,1-.178.268c-.1.127-.343.455-.545.729-.37.5-.5.671-.619.8-.035.039-.132.169-.215.289a2.306,2.306,0,0,1-.263.319.335.335,0,0,0-.112.16.425.425,0,0,1-.11.18c-.1.113-.391.5-1.1,1.461-.163.223-.331.447-.372.5s-.144.192-.227.312a3.074,3.074,0,0,1-.186.249,1.209,1.209,0,0,0-.123.2c-.049.094-.112.171-.14.171s-.052.04-.052.088a.123.123,0,0,1-.051.109,6.336,6.336,0,0,0-.7,1.039.268.268,0,0,1-.1.141.675.675,0,0,0-.156.21c-.031.07-.2.347-.368.615a5.779,5.779,0,0,0-.312.52.882.882,0,0,1-.117.2c-.065.091-.177.271-.249.4l-.266.467c-.124.217-.353.642-.712,1.325-.9,1.705-.909,1.766-.68,3.335a31.4,31.4,0,0,1,.128,3.986.98.98,0,0,1-.553.645c-.211.091-.542.1-.542.013,0-.034-.07-.062-.156-.062-.194,0-.194.029,0,.221.161.162,1.031.238,1.031.091,0-.034.058-.062.129-.062a.3.3,0,0,0,.294-.357c-.012-.113.009-.168.06-.158s.078-.3.078-1.418a4.9,4.9,0,0,0-.069-1.418c-.047.011-.066-.177-.059-.592.008-.5-.006-.608-.083-.608s-.087-.074-.056-.442c.028-.34.017-.455-.049-.5-.118-.073-.078-.456.077-.731a.561.561,0,0,0,.087-.366c-.027-.107-.01-.146.062-.146s.088-.036.059-.125-.011-.125.058-.125a.1.1,0,0,0,.1-.093c0-.051.028-.093.062-.093s.062-.056.062-.125.026-.125.057-.125.076-.112.1-.249.068-.249.1-.249.057-.056.057-.125.028-.125.062-.125.062-.056.062-.125.028-.125.062-.125.062-.054.062-.12a.184.184,0,0,1,.125-.16.184.184,0,0,0,.125-.16c0-.066.028-.12.062-.12s.062-.056.062-.125.028-.125.062-.125.062-.056.062-.125.028-.125.062-.125.062-.068.062-.152a.184.184,0,0,1,.125-.191.184.184,0,0,0,.125-.16c0-.066.028-.12.062-.12s.062-.05.062-.111a.3.3,0,0,1,.125-.2.3.3,0,0,0,.125-.2c0-.061.031-.111.07-.111s.055-.055.037-.125-.005-.125.028-.125c.107,0,.24-.175.2-.268-.021-.056.014-.1.093-.123a.321.321,0,0,0,.184-.182.643.643,0,0,1,.15-.227.509.509,0,0,0,.132-.231c.021-.084.066-.153.1-.153s.061-.05.061-.111a.3.3,0,0,1,.125-.2.292.292,0,0,0,.125-.187.292.292,0,0,1,.125-.187.292.292,0,0,0,.125-.187.292.292,0,0,1,.125-.187.288.288,0,0,0,.125-.176.6.6,0,0,1,.187-.261.583.583,0,0,0,.187-.274c0-.055.024-.1.053-.1a.577.577,0,0,0,.321-.309.62.62,0,0,1,.187-.252.626.626,0,0,0,.187-.249.626.626,0,0,1,.187-.249.631.631,0,0,0,.187-.248.3.3,0,0,1,.078-.16c.187-.209.234-.277.234-.344a.636.636,0,0,1,.187-.246.8.8,0,0,0,.187-.218.8.8,0,0,1,.187-.218.626.626,0,0,0,.187-.249.626.626,0,0,1,.187-.249.571.571,0,0,0,.187-.305c0-.072.024-.131.053-.131.115,0,.334-.249.3-.341-.02-.053-.017-.1.008-.1.118,0,.386-.3.351-.4-.022-.057-.007-.1.033-.1.126,0,.379-.3.339-.4-.02-.053-.006-.1.031-.1a.478.478,0,0,0,.319-.3.6.6,0,0,1,.187-.261.6.6,0,0,0,.187-.261.288.288,0,0,1,.125-.176.326.326,0,0,0,.125-.232c0-.078.024-.142.053-.142a.572.572,0,0,0,.321-.312.371.371,0,0,1,.132-.193.222.222,0,0,0,.1-.21c-.02-.053-.007-.1.028-.1.112,0,.257-.186.22-.282-.019-.051-.006-.092.03-.092.106,0,.245-.171.211-.261-.018-.046.03-.111.109-.146a.187.187,0,0,0,.127-.2c-.01-.1.03-.144.141-.172.131-.033.148-.064.114-.2s-.019-.156.045-.134c.113.038.212-.066.265-.278.024-.094.07-.171.1-.171s.061-.056.061-.125.028-.125.062-.125.062-.05.062-.111a.3.3,0,0,1,.125-.2.3.3,0,0,0,.125-.2c0-.061.028-.111.062-.111s.062-.054.062-.12a.184.184,0,0,1,.125-.16.184.184,0,0,0,.125-.16c0-.066.028-.12.062-.12s.062-.056.062-.125.028-.125.062-.125.062-.07.062-.156.028-.156.062-.156.062-.054.062-.12a.184.184,0,0,1,.125-.16.184.184,0,0,0,.125-.16c0-.066.028-.12.062-.12s.062-.056.062-.125.028-.125.062-.125.062-.056.062-.125.028-.125.062-.125.062-.056.062-.125.028-.125.062-.125.062-.056.062-.125.028-.125.062-.125.062-.056.062-.125.031-.125.07-.125.056-.069.031-.194c-.031-.156-.021-.187.055-.158.054.021.093,0,.093-.049a.815.815,0,0,1,.093-.263.918.918,0,0,0,.093-.35c0-.094.028-.171.063-.171s.062-.1.062-.218.028-.218.062-.218.062-.084.062-.187.028-.187.062-.187.062-.07.062-.156.028-.156.062-.156.062-.07.062-.156.028-.156.062-.156.062-.112.062-.249.028-.249.062-.249.062-.154.062-.343.028-.343.062-.343.062-.14.062-.312.028-.312.062-.312.062-.187.062-.436.027-.436.062-.436a1.567,1.567,0,0,0,.062-.654,1.566,1.566,0,0,1,.062-.654,4.9,4.9,0,0,0,0-1.558,1.991,1.991,0,0,1-.062-.748,1.992,1.992,0,0,0-.062-.748c-.034,0-.062-.154-.062-.343s-.028-.343-.062-.343-.062-.177-.062-.405-.027-.405-.062-.405-.062-.1-.062-.218-.028-.218-.062-.218-.062-.126-.062-.28-.028-.28-.062-.28-.062-.07-.062-.156-.028-.156-.062-.156-.062-.112-.062-.249-.028-.249-.062-.249-.062-.084-.062-.187-.028-.187-.062-.187-.062-.042-.062-.093-.028-.093-.062-.093-.062-.067-.062-.148c0-.317-.073-.53-.17-.492-.076.029-.086,0-.052-.155.025-.112.015-.207-.024-.231a.21.21,0,0,1-.066-.162c0-.067-.028-.121-.062-.121s-.062-.056-.062-.125-.023-.125-.051-.125-.089-.1-.136-.218-.108-.218-.136-.218-.051-.056-.051-.125-.028-.125-.062-.125-.062-.044-.062-.1c0-.094-.141-.276-.214-.276-.02,0-.036.028-.036.062m-11.182,1.355c1.025.349,2.643,1.529,2.643,1.928,0,.045.023.082.052.082s.092.077.14.171a1.342,1.342,0,0,0,.12.2c.645.626.845,2.854.407,4.519a7.628,7.628,0,0,1-.909,2.088,3.073,3.073,0,0,0-.186.249,4.477,4.477,0,0,1-5.67,1.727,6.517,6.517,0,0,1-2.057-1.723.065.065,0,0,0-.062-.067c-.034,0-.062-.042-.062-.093s-.023-.093-.052-.093-.092-.077-.14-.171a1.422,1.422,0,0,0-.12-.2,6.368,6.368,0,0,1-.484-.935c-.887-2.224-.247-4.692,1.482-5.714.1-.06.186-.132.186-.159s.054-.049.12-.049.129-.021.14-.047a3.442,3.442,0,0,1,.753-.38c.147-.059.171-.1.171-.32,0-.536.226-.733,1.278-1.11a6.471,6.471,0,0,1,2.25.1m-3.334,39.95a.249.249,0,0,1-.07.175.192.192,0,0,0-.062.149c0,.164-.289.289-.633.274-.318-.014-.435.118-.177.2.069.022.125.066.125.1,0,.11.682.067.8-.051a.759.759,0,0,0,.141-.659.608.608,0,0,1-.09-.2c-.028-.115-.031-.115-.038.012" transform="translate(-14.659 -16.96)" fill="#e6584b" fill-rule="evenodd"/>
    <path id="path2" d="M139.091,55.746a2.328,2.328,0,0,0,.436,0c.129-.014.039-.025-.2-.025s-.346.011-.235.025m.905,0a1.387,1.387,0,0,0,.343,0c.094-.014.017-.026-.171-.026s-.266.012-.171.026m-1.464.062a.681.681,0,0,0,.249,0c.06-.016,0-.028-.141-.027s-.186.013-.108.028m2.118,0a.882.882,0,0,0,.28,0c.077-.015.014-.027-.14-.027s-.217.012-.14.027m-2.945.081c-.17.043-.172.048-.031.051a.813.813,0,0,0,.28-.051c.154-.066.01-.066-.249,0m-5.3,2.633-.183.2.2-.183c.189-.171.231-.222.183-.222a1.552,1.552,0,0,0-.2.2m15.836.795a2.615,2.615,0,0,0,.338.312,1.8,1.8,0,0,0-.276-.312,2.615,2.615,0,0,0-.338-.312,1.8,1.8,0,0,0,.276.312m-16.832.2-.246.265.265-.246c.246-.229.294-.283.246-.283a2.788,2.788,0,0,0-.265.265m-1.073,1.34c-.161.233-.214.327-.182.327a1.233,1.233,0,0,0,.192-.249c.184-.279.176-.346-.009-.078m9.382,1.183a3.578,3.578,0,0,0,.53,0c.146-.013.027-.024-.265-.024s-.411.011-.265.024m-3.381,2.173-.187.161.2-.134a.844.844,0,0,0,.2-.161c0-.047-.026-.03-.218.134m-.626.54-.309.327.327-.309a4.367,4.367,0,0,0,.327-.327c0-.046-.058.005-.345.309m9.094,2.384c0,.343.011.475.023.294a5.067,5.067,0,0,0,0-.623c-.013-.162-.023-.014-.023.329m9.528-.156c0,.12.013.169.029.109a.515.515,0,0,0,0-.218c-.016-.06-.029-.011-.029.109m-26.168,1.06c0,.566.009.8.021.514s.012-.746,0-1.028-.021-.051-.021.514m6.352-.312c0,.223.011.314.025.2a1.98,1.98,0,0,0,0-.405c-.014-.111-.025-.02-.025.2m10.217.249c0,.12.013.169.029.109a.515.515,0,0,0,0-.218c-.016-.06-.029-.011-.029.109m7.606.156c0,.137.013.186.028.108a.68.68,0,0,0,0-.249c-.016-.06-.028,0-.027.141m2.125.467c0,.291.011.411.024.265a3.574,3.574,0,0,0,0-.53c-.013-.146-.024-.026-.024.265m-2.059.841c0,.206.012.282.026.17a1.663,1.663,0,0,0,0-.374c-.014-.094-.026,0-.025.2m2.06.312c0,.343.011.475.023.294a5.064,5.064,0,0,0,0-.623c-.013-.162-.023-.014-.023.329m-10.525.841c-.053.1-.083.187-.066.187A.537.537,0,0,0,144,70.6c.053-.1.083-.187.066-.187a.537.537,0,0,0-.128.187m8.4.031c0,.137.013.186.028.108a.68.68,0,0,0,0-.249c-.016-.06-.028,0-.027.141m-16.19,1.153a1.734,1.734,0,0,0,.275.249,1.083,1.083,0,0,0-.212-.249,1.735,1.735,0,0,0-.275-.249,1.083,1.083,0,0,0,.212.249m16.019-.062a.459.459,0,0,0-.014.225c.016.016.047-.061.069-.17.052-.26,0-.31-.055-.055m-.12.6a.364.364,0,0,0-.015.193c.015.015.046-.048.068-.139a.364.364,0,0,0,.015-.193c-.015-.015-.046.048-.068.139M138.765,73.4c.12.054.453.09.4.042a1.29,1.29,0,0,0-.275-.061c-.174-.026-.212-.021-.125.019m1.652,0c-.128.041-.134.051-.031.055a.437.437,0,0,0,.218-.055c.109-.071.033-.071-.187,0M131.1,77.081a.537.537,0,0,0,.128.187c.017,0-.012-.084-.066-.187a.537.537,0,0,0-.128-.187c-.017,0,.012.084.066.187m20.063,2.633c-.215.364-.229.4-.119.265.127-.151.236-.343.195-.343-.016,0-.05.035-.076.078m-18.293.452c.105.2.191.316.191.249a.6.6,0,0,0-.128-.218q-.127-.155-.063-.031m15.09.717c-.073.1-.119.187-.1.187a.714.714,0,0,0,.164-.187c.073-.1.119-.187.1-.187a.714.714,0,0,0-.164.187m2.47.016-.112.2.129-.156c.114-.138.165-.249.113-.249a1.017,1.017,0,0,0-.13.2m-.974,1.418c-.073.1-.119.187-.1.187a.713.713,0,0,0,.164-.187c.073-.1.119-.187.1-.187a.714.714,0,0,0-.164.187m-3.312,1.106c-.179.216-.255.327-.224.327a1,1,0,0,0,.2-.218c.17-.223.19-.307.027-.109m2.4.182c-.1.126-.143.209-.1.185.08-.049.35-.414.306-.414a1.178,1.178,0,0,0-.2.229m-2.182,2.93c-.1.126-.143.209-.1.185.08-.049.35-.414.306-.414a1.178,1.178,0,0,0-.2.229m-2.4,3.2c-.073.1-.119.187-.1.187a.714.714,0,0,0,.164-.187c.073-.1.119-.187.1-.187a.713.713,0,0,0-.164.187M138.9,93.693c-.021.055-.067.083-.1.061s-.063-.009-.063.027a.061.061,0,0,0,.055.066c.074,0,.221-.182.18-.222-.018-.018-.05.013-.071.068m.911,5.733c0,.137.013.186.028.108a.681.681,0,0,0,0-.249c-.016-.06-.028,0-.027.141m.065,1.215c0,.189.012.266.026.171a1.387,1.387,0,0,0,0-.343c-.014-.094-.026-.017-.026.171m.067,1c0,.36.01.507.023.327a5.648,5.648,0,0,0,0-.654c-.013-.18-.023-.033-.023.327m-2.082.41c-.035.093-.05.182-.034.2s.049-.046.072-.139c.031-.124.057-.147.1-.085s.053.06.054.01c0-.156-.127-.144-.188.017m2.014.556c0,.171.013.234.027.139a1.114,1.114,0,0,0,0-.312c-.015-.077-.027,0-.026.172m-.2.616-.15.194.178-.17c.1-.093.166-.181.151-.194s-.1.063-.178.17" transform="translate(-14.31 -16.309)" fill="#8f1f04" fill-rule="evenodd"/>
    <path id="path3" d="M136.539,55.335a4.293,4.293,0,0,0,1.028.038c.7,0,1.152-.019,1-.042a13.223,13.223,0,0,0-2.026,0m-.67.113a.883.883,0,0,0,.281,0c.077-.015.014-.027-.14-.027s-.217.012-.14.027m3.013-.022a2.657,2.657,0,0,0,.431.056c.243.02.343.014.249-.016a1.832,1.832,0,0,0-.68-.04m-3.87.165c-.119.077.009.077.249,0l.156-.05-.156-.005a.514.514,0,0,0-.249.055m4.742-.039a1.338,1.338,0,0,0,.275.065c.179.03.223.024.156-.022-.084-.057-.494-.1-.431-.043m-5.179.167c-.068.046-.043.052.093.021.229-.051.279-.087.12-.086a.453.453,0,0,0-.213.064m5.859,0c.213.068.377.068.218,0a.732.732,0,0,0-.249-.052c-.1,0-.094.012.031.052m.467.125c.172.074.232.074.187,0a.224.224,0,0,0-.175-.058c-.132,0-.132.006-.012.058m.374.125c.172.074.232.074.187,0a.224.224,0,0,0-.175-.058c-.132,0-.132.006-.012.058m-13.65.872c-.062.069-.093.125-.068.125.066,0,.243-.188.21-.221-.016-.016-.079.028-.142.1m3.79.353a4.361,4.361,0,0,0-.952.727c0,.028.117-.045.262-.162s.461-.346.7-.508c.472-.319.507-.346.451-.346a3.923,3.923,0,0,0-.462.29m12.322-.147a3.847,3.847,0,0,0,.452.326,10.475,10.475,0,0,1,1.413,1.113.561.561,0,0,0,.209.163,7.163,7.163,0,0,0-1.545-1.287c-.455-.3-.53-.349-.53-.316m-13.744,1.269c-.206.193-.29.293-.187.223a2.819,2.819,0,0,0,.589-.574,4.241,4.241,0,0,0-.4.351m-.624.6-.377.45c-.306.364-.546.695-.319.439l.487-.548a1.724,1.724,0,0,0,.323-.418.216.216,0,0,0-.113.078m17.048.319a3.934,3.934,0,0,0,.39.491c.214.247.5.6.634.792.286.4.419.548.256.28a10.685,10.685,0,0,0-1.28-1.564m3.3.428a.278.278,0,0,0,.065.2c.043.026.05-.021.022-.137-.057-.239-.087-.261-.087-.066m-21.427.576c-.181.28-.14.28.074,0,.091-.12.144-.218.116-.217s-.113.1-.191.218m21.843.252c.087.156.17.273.183.259a1.418,1.418,0,0,0-.3-.543c-.023,0,.029.127.116.283m-22.308.449a2.252,2.252,0,0,0-.336.639,1.169,1.169,0,0,0,.176-.265c.082-.146.2-.342.262-.436s.1-.171.083-.171a1,1,0,0,0-.185.234m22.518-.062a5.387,5.387,0,0,0,.492.92,3.1,3.1,0,0,0-.22-.514c-.206-.416-.28-.527-.272-.406m-2.091.888a.537.537,0,0,0,.128.187c.017,0-.012-.084-.066-.187a.537.537,0,0,0-.128-.187c-.017,0,.012.084.066.187m-11.188,0c-.21.044-.211.046-.031.047a1.8,1.8,0,0,0,.374-.047c.259-.066-.03-.066-.343,0m1.153,0a2.281,2.281,0,0,0,.405.048c.1,0,.066-.022-.093-.055a2.282,2.282,0,0,0-.405-.048c-.1,0-.066.022.094.055m.654.118a.453.453,0,0,0,.213.064c.159,0,.11-.034-.12-.086-.136-.031-.162-.025-.093.021m-11.658.174c-.131.263-.132.265-.1.265a1.007,1.007,0,0,0,.206-.415c-.012-.012-.059.056-.106.15m23.657-.039a.661.661,0,0,0,.1.207.284.284,0,0,1,.055.168.186.186,0,0,0,.053.141c.029.018.04-.037.024-.122a.351.351,0,0,0-.084-.189.2.2,0,0,1-.055-.151.205.205,0,0,0-.069-.16c-.047-.029-.055,0-.024.105m-14.71.028c-.226.118-.405.274-.405.353,0,.032.082-.019.182-.113a1.57,1.57,0,0,1,.358-.249c.1-.043.149-.08.115-.083a.777.777,0,0,0-.249.093m3.164-.031a1.8,1.8,0,0,0,.545.217,2.652,2.652,0,0,0-.616-.282c-.021,0,.011.031.071.066m.607.265a3.019,3.019,0,0,0,.39.278,5.5,5.5,0,0,1,1.157,1.035c.076.1.152.167.169.15a5.5,5.5,0,0,0-1.053-1.076c-.3-.223-.662-.436-.662-.388m-4.263.327a1.126,1.126,0,0,0-.038.309.3.3,0,0,1-.109.273c-.1.058-.1.064,0,.065.146,0,.182-.077.2-.436.016-.337.01-.362-.048-.212m15.486.07a.707.707,0,0,0,.054.218c.032.079.074.2.1.261s.052.1.07.086a.825.825,0,0,0-.091-.336c-.068-.167-.125-.271-.127-.229m-24.336.266c-.141.352-.119.4.029.07a.837.837,0,0,0,.1-.3c-.014-.014-.07.089-.126.228m-.195.5c-.023.074-.029.148-.011.165s.05-.029.074-.1.029-.148.011-.165-.05.029-.074.1m24.785-.062a.687.687,0,0,0,.054.218c.034.079.054.09.054.031a.686.686,0,0,0-.054-.218c-.034-.079-.054-.09-.054-.031m-2.248.2a1.546,1.546,0,0,0,.223.527.836.836,0,0,0-.1-.3c-.067-.151-.124-.254-.126-.228m-22.662.235c-.023.074-.029.148-.011.165s.05-.029.074-.1.029-.148.011-.165-.05.029-.074.1m25.03.043a.224.224,0,0,0,.058.175c.074.046.074-.015,0-.187-.052-.12-.054-.12-.058.012m-9.779.113c.039.086.1.156.125.156s.008-.07-.048-.156a.6.6,0,0,0-.125-.156c-.012,0,.009.07.048.156m-15.376.28c-.023.074-.029.148-.011.165s.05-.029.074-.1.029-.148.011-.165-.05.029-.074.1m25.275.017a.278.278,0,0,0,.065.2c.043.026.05-.021.022-.137-.057-.239-.087-.261-.087-.066m-18.27.341c-.21.232-.326.39-.289.39a1.7,1.7,0,0,0,.261-.28c.254-.309.271-.378.027-.109m-7.13.14a.441.441,0,0,0-.012.227c.017.017.05-.057.074-.165a.442.442,0,0,0,.012-.227c-.017-.017-.05.057-.074.165m23.313-.047c.193.663.3.951.239.639a3.319,3.319,0,0,0-.252-.779c-.015,0-.01.063.013.14m2.217.078a.45.45,0,0,0,.057.218c.08.124.08-.032,0-.218l-.054-.125,0,.125m-13.11.262a.882.882,0,0,0,.28,0c.077-.015.014-.027-.14-.027s-.217.012-.14.027m-12.532.207a1.418,1.418,0,0,0-.035.341c0,.149.017.13.061-.093.06-.307.041-.5-.026-.248m13.109.085a.169.169,0,0,0,.062.132c.034.021.062,0,.062-.055a.169.169,0,0,0-.062-.132c-.034-.021-.062,0-.062.055m12.664.007a.732.732,0,0,0,.052.249c.068.159.068,0,0-.218-.04-.125-.05-.131-.052-.031m-9.444.249a1.289,1.289,0,0,0,.061.275c.047.053.012-.28-.042-.4-.039-.087-.045-.049-.019.125m7.381.1a.858.858,0,0,0,.061.275c.039.087.045.049.019-.125-.044-.289-.086-.368-.079-.151m2.189.338a.923.923,0,0,0,.051.312l.054.125,0-.125a1.773,1.773,0,0,0-.051-.312l-.048-.187,0,.187m-26.023.033a1.781,1.781,0,0,0-.035.4c.006.235.01.23.063-.09.06-.361.041-.572-.028-.314m16.56.715c0,.377.01.523.023.325a6.242,6.242,0,0,0,0-.686c-.012-.179-.023-.016-.022.361M150,66.312a8.879,8.879,0,0,0,.2,1.245,4.268,4.268,0,0,0-.14-1.12c-.047-.189-.073-.245-.057-.125m-17.516.09a.568.568,0,0,0-.012.259c.017.017.05-.071.074-.2a.572.572,0,0,0,.012-.259c-.017-.017-.05.071-.074.2m7.452.374A.165.165,0,0,0,140,66.9c.034.021.062-.019.062-.09s-.028-.128-.062-.128-.062.04-.062.09m12.26.565a4.341,4.341,0,0,0,.058.587,2.806,2.806,0,0,0-.039-.867c-.038-.2-.044-.124-.019.28m-19.78.031c0,.291.011.411.024.265a3.578,3.578,0,0,0,0-.53c-.013-.146-.024-.026-.024.265m10.047.595a.863.863,0,0,0-.012.32c.017.017.051-.1.074-.258a.862.862,0,0,0,.012-.32c-.017-.017-.051.1-.074.258m7.784,1.119c0,1.069.007,1.158.047.623a10.03,10.03,0,0,0,0-1.247c-.04-.534-.047-.445-.047.623m2.342-.908c0,.071.028.128.062.128s.062-.04.062-.09a.165.165,0,0,0-.062-.128c-.034-.021-.062.019-.062.09m-20.122.066a.828.828,0,0,0,.052.28l.054.125,0-.125a1.182,1.182,0,0,0-.052-.28l-.05-.156,0,.156m9.877.319c-.052.26,0,.31.055.055a.459.459,0,0,0,.014-.225c-.016-.016-.047.061-.069.17m-16.365.371a1.315,1.315,0,0,0,.061.4c.038.082.044,0,.019-.249-.046-.452-.086-.528-.08-.151m.125.873a1.063,1.063,0,0,0,.061.338c.038.084.044.023.019-.187-.045-.371-.086-.448-.08-.151m26.089.453a2.945,2.945,0,0,0-.018.581,3.879,3.879,0,0,0,.091-1.014c-.014-.065-.047.13-.073.433m-25.96.2a.759.759,0,0,0,.054.249l.054.125v-.125a.758.758,0,0,0-.054-.249l-.054-.125v.125m7.533.654a1.958,1.958,0,0,0,.269.293c.04.025-.036-.087-.168-.249a1.955,1.955,0,0,0-.269-.293.906.906,0,0,0,.168.248m7.433-.029c-.181.28-.14.28.074,0,.091-.12.144-.218.116-.217s-.113.1-.191.218m8.881.093c-.026.189-.061.441-.077.561s.013.05.066-.156a2.185,2.185,0,0,0,.077-.561c-.013-.136-.031-.093-.066.156m-23.729-.187a.413.413,0,0,0,.06.187c.054.083.06.083.06,0a.413.413,0,0,0-.06-.187c-.054-.083-.06-.083-.06,0m25.723.312a1.393,1.393,0,0,0-.038.343c0,.17.011.165.063-.061.066-.281.043-.53-.025-.282m-25.6.125a.413.413,0,0,0,.06.187c.054.083.06.083.06,0a.413.413,0,0,0-.06-.187c-.054-.083-.06-.083-.06,0m14.224.239a1.344,1.344,0,0,0-.245.3,1.355,1.355,0,0,0,.293-.258,1.1,1.1,0,0,0,.245-.3,1.146,1.146,0,0,0-.293.258m-6.435-.022a3.311,3.311,0,0,0,.57.52c.219.155.114.035-.228-.26a1.534,1.534,0,0,0-.343-.259M126.6,71.8a.413.413,0,0,0,.06.187c.054.083.06.083.06,0a.413.413,0,0,0-.06-.187c-.054-.083-.06-.083-.06,0m23.22.637c-.059.249-.148.576-.2.727a.824.824,0,0,0-.065.3c.014.014.068-.109.12-.273a6.221,6.221,0,0,0,.277-1.179,1.453,1.453,0,0,0-.134.427m2.123-.355a.712.712,0,0,0-.033.237c0,.1.023.074.066-.074.062-.216.037-.343-.033-.162m-16.743.306a.537.537,0,0,0,.187.128c.1.053.187.083.187.066a.537.537,0,0,0-.187-.128c-.1-.053-.187-.083-.187-.066m.436.251a1.008,1.008,0,0,0,.487.189c.018-.018.017-.032,0-.032a1.793,1.793,0,0,1-.26-.094c-.124-.052-.226-.08-.226-.063m3.522.092c-.137.065-.232.12-.21.123a1.532,1.532,0,0,0,.491-.214c0-.042,0-.042-.28.091m12.664-.08a.37.37,0,0,0-.036.2c.005.158.006.158.06-.023s.048-.252-.024-.18m-15.531.27a.687.687,0,0,0,.218.054c.059,0,.047-.02-.031-.054a.687.687,0,0,0-.218-.054c-.059,0-.047.02.031.054m2.306,0c-.079.034-.09.054-.031.054a.686.686,0,0,0,.218-.054c.079-.034.09-.054.031-.054a.687.687,0,0,0-.218.054m-1.325.17a4.578,4.578,0,0,0,.592,0c.163-.013.03-.023-.3-.023s-.459.011-.3.023m14.422.112a.6.6,0,0,0-.034.205c0,.057.03.021.06-.08.059-.2.038-.294-.027-.125m-24.47.161a2.652,2.652,0,0,0,.282.616c.016,0-.012-.1-.062-.218-.1-.251-.218-.455-.22-.4m24.349.283a.291.291,0,0,0-.038.171c0,.119.009.118.064-.019.061-.153.048-.226-.026-.152m-.374,1.122a.291.291,0,0,0-.038.171c0,.119.009.118.064-.019.061-.153.048-.226-.026-.152m-23.291.044a2.994,2.994,0,0,0,.345.663,1.064,1.064,0,0,0-.133-.327c-.174-.346-.212-.406-.212-.335m23,.756-.127.327c-.036.094-.041.143-.009.109a1.69,1.69,0,0,0,.229-.592c-.018,0-.06.07-.093.156m-.515,1.125a5.875,5.875,0,0,0-.29.636,4.007,4.007,0,0,0,.316-.568,4.226,4.226,0,0,0,.29-.636,3.508,3.508,0,0,0-.316.568M125.6,76.565a.093.093,0,1,0,.093-.094.094.094,0,0,0-.093.094m3.3.17a1.041,1.041,0,0,0,.124.249c.068.112.124.176.124.142a.808.808,0,0,0-.124-.249c-.068-.1-.124-.167-.124-.142m19.1.235c-.053.1-.083.187-.066.187a.537.537,0,0,0,.128-.187c.053-.1.083-.187.066-.187a.537.537,0,0,0-.128.187m-18.769.405a1.983,1.983,0,0,0,.193.312c.095.117.1.113.01-.062a1.983,1.983,0,0,0-.193-.312c-.095-.117-.1-.113-.009.062m18.109.764c-.22.369-.409.7-.419.732a8.566,8.566,0,0,0,.671-1.044c.344-.611.169-.394-.252.312M129.62,78.03c.053.1.184.334.291.514s.264.454.349.608a2.066,2.066,0,0,0,.253.374c.087.083.091.083.032,0-.036-.051-.137-.22-.223-.374-.444-.793-.748-1.309-.772-1.309s.017.084.07.187m19.946.249c-.053.1-.083.187-.066.187a.537.537,0,0,0,.128-.187c.053-.1.083-.187.066-.187a.536.536,0,0,0-.128.187m-2.8.847c-.058.089-.095.172-.082.185s.073-.059.133-.161c.134-.228.094-.246-.051-.024m2.306,0c-.058.089-.091.175-.074.193s.076-.055.131-.161c.121-.234.088-.253-.057-.031m-2.585.418c-.047.076-.126.2-.176.278s-.078.14-.061.14a1.833,1.833,0,0,0,.345-.533c-.012-.012-.061.039-.108.115m2.089.393a1.251,1.251,0,0,0-.2.377c.015.015.084-.067.152-.183s.173-.285.233-.377.1-.166.079-.166a2.078,2.078,0,0,0-.261.349m-17.735.181a.6.6,0,0,0,.128.218q.127.155.063.031c-.105-.2-.191-.316-.191-.249m14.912.545a11.074,11.074,0,0,0-.722,1.087,10.415,10.415,0,0,0,.808-1.165c-.014,0-.053.035-.086.078m1.98.582a3.913,3.913,0,0,0-.383.623,8.372,8.372,0,0,0,.857-1.282,6.906,6.906,0,0,0-.474.66m-16.3-.1a.537.537,0,0,0,.128.187c.017,0-.012-.084-.066-.187a.536.536,0,0,0-.128-.187c-.017,0,.012.084.066.187m.549.966a3.092,3.092,0,0,0,.261.436c.057.069.013-.044-.1-.249-.25-.465-.377-.611-.163-.187m12.781-.047-.421.577c-.137.189-.291.392-.34.452s-.074.109-.053.109a10.53,10.53,0,0,0,.9-1.169c.081-.111.134-.2.117-.2a1.073,1.073,0,0,0-.2.234m2.023.561c-.175.206-.387.537-.316.493a2.857,2.857,0,0,0,.428-.6.49.49,0,0,0-.112.109m-14.449.094a3.857,3.857,0,0,0,.412.731c.015,0-.018-.088-.074-.194-.154-.3-.338-.59-.339-.537m13.879.668c-.06.1-.294.432-.519.732l-.561.749c-.084.111-.138.2-.121.2a9.132,9.132,0,0,0,.575-.732c.834-1.123.844-1.138.789-1.138-.029,0-.1.084-.162.186m-2.748.406a2.714,2.714,0,0,0-.363.528,1.277,1.277,0,0,0,.264-.3c.12-.162.233-.308.252-.325a1.817,1.817,0,0,0,.287-.436,5.148,5.148,0,0,0-.44.53m-10.695-.266a1.042,1.042,0,0,0,.124.249c.068.112.124.176.124.142a.808.808,0,0,0-.124-.249c-.068-.1-.124-.167-.124-.142m10.07,1.092c-.135.172-.145.2-.041.11.125-.109.29-.343.242-.343a1.826,1.826,0,0,0-.2.234m-.293.374c-.2.239-.269.349-.2.306s.357-.415.313-.415a.4.4,0,0,0-.116.109m2.306.249c-.2.239-.269.349-.2.306s.357-.415.313-.415a.4.4,0,0,0-.116.109m-2.909.53a1.82,1.82,0,0,0-.286.416.027.027,0,0,0,.043,0c.009-.014.151-.2.316-.416a2.27,2.27,0,0,0,.269-.39,3.146,3.146,0,0,0-.341.39m2.43.085c-.08.123-.116.206-.081.184.1-.061.335-.41.277-.409-.028,0-.116.1-.2.225m-.269.382c-.179.216-.255.327-.224.327a1,1,0,0,0,.2-.218c.17-.223.19-.307.027-.109m-12.892.254a.3.3,0,0,0,.091.176c.12.12.122.021,0-.137-.057-.076-.092-.09-.093-.038m11.747,1.234c-.877,1.181-1.284,1.761-1,1.426.318-.377,1.9-2.524,1.857-2.521-.024,0-.409.494-.855,1.095m-2.1-.553c-.2.243-.253.327-.2.326.03,0,.118-.1.2-.218.151-.233.154-.287.006-.108m-6.31.2c.059.228.206.547.2.44a1.319,1.319,0,0,0-.122-.343c-.066-.137-.1-.181-.081-.1m5.963.269c-.27.353-.413.564-.359.532a2.863,2.863,0,0,0,.446-.61c-.015,0-.054.035-.087.078m-5.721.417c.071.23.213.542.215.472a1.8,1.8,0,0,0-.211-.575c-.028-.026-.029.02,0,.1m5.193.3a2.164,2.164,0,0,0-.342.514,1.83,1.83,0,0,0,.254-.312c.222-.309.267-.413.088-.2m-4.936.386c.059.228.206.547.2.44a1.317,1.317,0,0,0-.122-.343c-.066-.137-.1-.181-.081-.1m4.135.728c-.312.439-.555.846-.424.709.081-.084.859-1.247.834-1.247a5.222,5.222,0,0,0-.41.537m-3.892-.023a7.4,7.4,0,0,0,.352,1.009c.051.061.026-.031-.2-.728-.122-.38-.253-.619-.153-.28m5.483,1.334c-.538.815-.695,1.069-.612.988a18.836,18.836,0,0,0,1.089-1.651,5.257,5.257,0,0,0-.477.663m-2.36-.2c-.126.189-.207.343-.181.343a2.143,2.143,0,0,0,.435-.66,1.132,1.132,0,0,0-.254.318m-2.595.442a.453.453,0,0,0,.064.213c.046.068.052.043.021-.093-.051-.229-.087-.279-.086-.12m2.238.1c-.042.08-.118.209-.168.286s-.077.14-.061.14a1.541,1.541,0,0,0,.337-.541c-.017-.017-.065.035-.108.115m-2.11.344a.224.224,0,0,0,.058.175c.074.045.074-.015,0-.187-.052-.12-.054-.12-.058.012m1.527.621a2.481,2.481,0,0,0-.262.5c.014.013.1-.11.2-.274s.226-.39.293-.5.108-.2.091-.2a3.278,3.278,0,0,0-.318.477m-1.406-.254a.453.453,0,0,0,.064.213c.046.068.052.043.022-.094-.051-.229-.087-.279-.086-.12m3.912.166c-.136.21-.259.461-.19.39a2.083,2.083,0,0,0,.31-.53c-.016,0-.07.063-.12.14m-3.786.3a.413.413,0,0,0,.06.187c.054.083.06.083.06,0a.413.413,0,0,0-.06-.187c-.054-.083-.06-.083-.06,0m.128.405a.45.45,0,0,0,.057.218c.08.124.08-.032,0-.218l-.054-.125,0,.125m.654.257a1.769,1.769,0,0,0-.161.339c0,.028-.058.092-.129.141s-.1.107-.067.129a.07.07,0,0,0,.1-.017,7.318,7.318,0,0,0,.451-.881,1.275,1.275,0,0,0-.191.288m2.491-.129c-.059.09-.094.176-.079.191s.076-.046.135-.135.094-.176.079-.191-.076.046-.135.135m-3.025.339a.413.413,0,0,0,.06.187c.054.083.06.083.06,0a.413.413,0,0,0-.06-.187c-.054-.083-.06-.083-.06,0m2.774.1c-.058.089-.091.175-.074.193s.076-.055.131-.161c.121-.234.088-.253-.057-.031m-.249.436c-.058.089-.091.175-.074.193s.076-.055.131-.161c.121-.234.088-.253-.057-.031m-.94,1.777a1.163,1.163,0,0,0-.138.341,1.075,1.075,0,0,0,.191-.318,1.223,1.223,0,0,0,.138-.341,1.417,1.417,0,0,0-.19.318m-.452.944c-.247.513-.275.644-.208.982.055.275.055.273.048-.125a1.37,1.37,0,0,1,.193-.807,1.885,1.885,0,0,0,.179-.423,1.519,1.519,0,0,0-.212.372m-.094,1.761a3.529,3.529,0,0,0,.058.525,2.077,2.077,0,0,0-.039-.743c-.04-.211-.045-.157-.019.218m.126,1.247c.1,2.1.133,2.587.1,1.272-.017-.706-.054-1.435-.082-1.621-.034-.232-.04-.124-.019.349m-3.209,1.091c0,.12.013.169.029.109a.515.515,0,0,0,0-.218c-.016-.06-.029-.011-.029.109m.992,1.623c-.081.067-.118.123-.082.123.063,0,.261-.169.261-.223s-.022-.03-.178.1m2.235.191a.515.515,0,0,1-.194.5c-.107.1-.165.181-.13.181.17,0,.386-.386.386-.69a.787.787,0,0,0-.031-.307.842.842,0,0,0-.031.318m-2.93-.062c0,.038-.041.053-.091.034-.108-.041-.189.057-.1.115.035.022.138-.018.228-.089.119-.094.136-.129.062-.129-.056,0-.1.031-.1.069m1.5.59c0,.08.186.213.292.209s.091-.015-.027-.072c-.077-.037-.14-.091-.14-.12a.058.058,0,0,0-.062-.053c-.034,0-.062.016-.062.036m.608.2a.881.881,0,0,0,.28,0c.077-.015.014-.027-.14-.027s-.217.012-.14.027" transform="translate(-12.146 -15.95)" fill="#5c1804" fill-rule="evenodd"/>
    <path id="path4" d="M139.554,55.917c-.367.028-.281.037.405.042.873.006,1.051-.019.405-.057a7.463,7.463,0,0,0-.81.015m-1.34.12-.125.054.125,0a1.182,1.182,0,0,0,.28-.052l.156-.05-.156,0a.827.827,0,0,0-.28.052m3.272,0a1.231,1.231,0,0,0,.312.05h.156l-.156-.05a1.231,1.231,0,0,0-.312-.05h-.156l.156.05m.779.125a.224.224,0,0,0,.175.058c.132,0,.132-.006.012-.058-.172-.074-.233-.074-.187,0m-7.48,1.065c-.1.071-.145.113-.094.093s.143-.054.2-.075.109-.063.109-.094c0-.074,0-.073-.218.075m10.659.057a.138.138,0,0,0,.1.062.757.757,0,0,1,.249.132c.1.072.2.118.215.1s-.062-.084-.175-.151c-.273-.16-.44-.221-.392-.144m-11.1.186c-.1.068-.159.123-.125.123.063,0,.4-.244.343-.246a1.052,1.052,0,0,0-.218.123m11.843.219a1.585,1.585,0,0,0,.249.163l.125.061-.125-.1a1.585,1.585,0,0,0-.249-.163l-.125-.061.125.1m-12.9.5c-.385.291-.507.4-.349.31a6.684,6.684,0,0,0,.748-.567c0-.041-.024-.026-.4.257m13.7.017c.049.08.414.35.414.306a1.178,1.178,0,0,0-.229-.2c-.126-.1-.209-.143-.185-.1m.48.373a.719.719,0,0,0,.2.2l.2.152-.183-.2c-.19-.206-.224-.23-.219-.152m.433.337a9.85,9.85,0,0,0,1.035,1.033,4.863,4.863,0,0,0-.508-.545,4.556,4.556,0,0,0-.528-.487m-15.77.271c-.116.12-.194.218-.173.218a1.292,1.292,0,0,0,.263-.218c.124-.12.2-.218.173-.218a.978.978,0,0,0-.263.218m-.579.642a1.2,1.2,0,0,0-.231.285c0,.027.035.01.078-.037l.261-.285c.256-.279.172-.25-.108.037m17.409.219a1.552,1.552,0,0,0,.2.2l.2.183-.183-.2c-.171-.189-.222-.231-.222-.183m1.1,1.409a7.485,7.485,0,0,1,.464.733.653.653,0,0,0,.129.207c.1.121.091.088-.033-.144a12.31,12.31,0,0,0-.964-1.442,4.413,4.413,0,0,0,.4.645m2.929.171c.365.728.4.78.355.553-.017-.087-.055-.158-.085-.158s-.055-.056-.055-.125-.028-.125-.062-.125-.062-.056-.062-.125-.028-.125-.062-.125-.062-.056-.062-.125-.028-.125-.062-.125-.062-.053-.062-.118a.167.167,0,0,0-.084-.15c-.046-.018.063.262.244.621m-13.623.582c-.119.077.009.077.249,0l.156-.05-.156-.005a.514.514,0,0,0-.249.055m1.5,0a1.128,1.128,0,0,0,.28.05c.1,0,.092-.01-.031-.05a1.128,1.128,0,0,0-.28-.05c-.1,0-.092.01.031.05m-11.176.471c-.229.467-.208.522.026.069a1.505,1.505,0,0,0,.165-.388,1.089,1.089,0,0,0-.191.319m12.859.108a2.425,2.425,0,0,0,.34.259,6.778,6.778,0,0,1,.81.726,2.745,2.745,0,0,0,.47.442,8.019,8.019,0,0,0-1.212-1.19c-.321-.217-.409-.268-.409-.238m10.976.014c-.009.147.088.2.179.106s.08-.094-.012-.059a.1.1,0,0,1-.133-.035c-.017-.041-.032-.046-.034-.012m-2.622.078a.682.682,0,0,0,.128.2l.127.156-.1-.2c-.094-.192-.16-.258-.157-.156m2.741.289a.169.169,0,0,0,.062.132c.034.021.062,0,.062-.055a.169.169,0,0,0-.062-.132c-.034-.021-.062,0-.062.055m-24.278.206a.767.767,0,0,0-.078.283c.01.03.065-.073.123-.229.126-.339.091-.38-.045-.054m24.4.154c0,.09.1.1.17.019s.053-.081-.047-.074c-.068,0-.123.03-.123.055m-24.614.434a.5.5,0,0,0-.046.225c.013.013.056-.066.094-.176a.5.5,0,0,0,.046-.225c-.013-.013-.056.066-.094.176m24.739-.085c0,.137.122.227.123.093,0-.077-.027-.14-.061-.14s-.062.021-.061.047m-24.957.771a1.494,1.494,0,0,0-.087.4,1.079,1.079,0,0,0,.137-.351,1.446,1.446,0,0,0,.087-.4,1.043,1.043,0,0,0-.137.351m25.209.1c.017.183.112.285.116.125,0-.094-.024-.171-.058-.171s-.06.021-.058.047m-25.365.452c-.005.051-.025.164-.044.249-.03.135-.025.141.036.045a.4.4,0,0,0,.044-.249c-.015-.076-.031-.1-.036-.045m6.611.319a1.213,1.213,0,0,0-.184.34,1.243,1.243,0,0,0,.248-.318c.124-.188.206-.341.184-.34a1.359,1.359,0,0,0-.248.318m16.633.118a.413.413,0,0,0,.06.187c.054.083.06.083.06,0a.413.413,0,0,0-.06-.187c-.054-.083-.06-.083-.06,0m-23.4.351a.979.979,0,0,0-.013.319c.015.015.046-.1.07-.262a.884.884,0,0,0,.013-.319c-.017-.017-.048.1-.07.262m25.769-.215c.011.2.111.339.116.163a.28.28,0,0,0-.058-.206c-.034-.021-.06,0-.058.043m-9.376.456c.02.171.057.606.082.966l.045.654.006-.53a5.626,5.626,0,0,0-.082-.966c-.061-.3-.077-.341-.051-.125m7.132-.113a.224.224,0,0,0,.058.175c.074.046.074-.015,0-.187-.052-.12-.054-.12-.058.012m2.408.487a1.793,1.793,0,0,0,.058.338c.047.054.011-.406-.04-.525-.035-.08-.041-.014-.018.187m-26.057.334a1.537,1.537,0,0,0-.018.426c.045.045.117-.5.09-.673-.013-.083-.045.028-.072.246m23.807-.147c.052.309.088.359.087.12a.6.6,0,0,0-.065-.275c-.046-.067-.052-.023-.022.156m-17.451-.06a.7.7,0,0,0-.032.237c0,.085.025.055.058-.083.055-.232.04-.323-.025-.154m17.583.746a2.326,2.326,0,0,0,.057.4c.043.05.009-.464-.041-.618-.032-.1-.038-.014-.016.218m2.246.187a4.563,4.563,0,0,0,.055.587,3.823,3.823,0,0,0-.039-.992c-.027-.086-.034.1-.016.405m-19.974.218c0,.189.012.266.026.171a1.383,1.383,0,0,0,0-.343c-.014-.094-.026-.017-.026.171m10.343.187c0,.12.013.169.029.109a.514.514,0,0,0,0-.218c-.016-.06-.029-.011-.029.109m7.482.125c0,.154.012.217.027.14a.882.882,0,0,0,0-.28c-.015-.077-.027-.014-.027.14m-17.767.249c0,.12.013.169.029.109a.515.515,0,0,0,0-.218c-.016-.06-.029-.011-.029.109m10.215.011a3.788,3.788,0,0,1-.106.551,1.421,1.421,0,0,0-.07.413,3.057,3.057,0,0,0,.214-1.01c-.023-.09-.032-.078-.038.046m7.623,1.08c0,.583.009.83.021.549s.012-.758,0-1.06-.021-.072-.021.511m2.18-.187c0,.411.01.572.022.356s.012-.552,0-.748-.022-.019-.022.392m-19.969-.462a.7.7,0,0,0,.063.307c.043.065.05.009.021-.187-.051-.349-.086-.4-.085-.12m-6.348.244a3.049,3.049,0,0,0,.048.436l.05.28,0-.28a1.781,1.781,0,0,0-.048-.436l-.05-.156,0,.156m16.054,1c-.147.338-.134.4.019.1a.842.842,0,0,0,.106-.3c-.009-.028-.066.062-.125.2m-15.9.219a1.738,1.738,0,0,0,.061.338c.049.055.012-.406-.042-.525-.038-.084-.044-.023-.019.187m6.567-.236a2.505,2.505,0,0,0,.349.642,4.205,4.205,0,0,0-.326-.68c-.013-.014-.024,0-.024.039m19.521.673c-.007.171-.026.424-.043.561l-.03.249.065-.207a1.944,1.944,0,0,0,.043-.561l-.022-.354-.012.312m-2.176.093c0,.154.012.217.027.14a.882.882,0,0,0,0-.28c-.015-.077-.027-.014-.027.14m-8.392.078-.112.2L144.16,71c.114-.138.165-.249.113-.249a1.018,1.018,0,0,0-.13.2m-15.429-.066c.019.245.106.4.112.194a.341.341,0,0,0-.056-.237c-.034-.021-.06,0-.056.043m23.751.518a2.93,2.93,0,0,1-.043.343l-.032.156.067-.154a.773.773,0,0,0,.043-.343l-.024-.189-.011.187m-23.622-.031c0,.162.1.428.1.28a.731.731,0,0,0-.052-.249c-.033-.076-.053-.089-.052-.031m25.742.5a3.091,3.091,0,0,1-.043.374l-.032.156.067-.154a.886.886,0,0,0,.043-.374l-.024-.22-.011.218m-11.234.173c-.251.289-.341.414-.264.368a2.5,2.5,0,0,0,.441-.541.9.9,0,0,0-.177.173m-6.726.17a1.357,1.357,0,0,0,.243.218c.017,0-.064-.1-.18-.218a1.357,1.357,0,0,0-.243-.218c-.017,0,.064.1.18.218m15.715-.125a2.718,2.718,0,0,1-.041.28l-.032.156.067-.153a.565.565,0,0,0,.041-.28c-.025-.124-.026-.124-.035,0m-23.127.482a5.183,5.183,0,0,0,.383.951c.032.034,0-.078-.065-.249a2.7,2.7,0,0,0-.318-.7m7.849.032a5.243,5.243,0,0,0,1.032.675c.308.156.541.225.491.145a.152.152,0,0,0-.118-.057,4.54,4.54,0,0,1-1.107-.6c-.164-.118-.3-.194-.3-.168m17.4.015c-.005.051-.025.164-.044.249-.03.135-.025.141.036.045a.4.4,0,0,0,.044-.249c-.015-.076-.031-.1-.036-.045m-12.192.346c-.171.118-.289.215-.262.215a2.064,2.064,0,0,0,.372-.218c.178-.12.3-.217.263-.215a1.818,1.818,0,0,0-.372.218m9.909-.1c-.023.074-.029.148-.011.165s.05-.029.074-.1.029-.148.011-.165-.05.029-.074.1m-10.6.463a.969.969,0,0,0-.273.155,2.524,2.524,0,0,0,.616-.278c0-.041,0-.04-.343.124m10.472-.027c-.023.074-.029.148-.011.165s.05-.029.074-.1.029-.148.011-.165-.05.029-.074.1m2.282-.083a1.011,1.011,0,0,1-.048.187c-.031.089-.023.1.037.043a.208.208,0,0,0,.048-.187c-.016-.064-.033-.083-.037-.043m-15.5.332a.687.687,0,0,0,.218.054c.059,0,.047-.02-.031-.054a.687.687,0,0,0-.218-.054c-.059,0-.047.02.031.054m2.026,0c-.124.08.032.08.218,0l.125-.054-.125,0a.45.45,0,0,0-.218.057m11.068.16a.337.337,0,0,0-.011.2c.017.017.05-.043.073-.135a.338.338,0,0,0,.01-.2c-.017-.017-.05.043-.073.135m-12.325-.021a2.388,2.388,0,0,0,.748,0c.323-.055.289-.06-.4-.061-.714,0-.73,0-.353.061m14.6.027a1.009,1.009,0,0,1-.048.187c-.031.089-.023.1.037.043a.208.208,0,0,0,.048-.187c-.016-.064-.033-.083-.037-.043M152.866,77.3a1.267,1.267,0,0,0-.1.232c0,.054.161-.2.206-.319.065-.178,0-.124-.108.087m-21.21.38a10.49,10.49,0,0,0,.765,1.293,1.238,1.238,0,0,0-.161-.327c-.1-.18-.332-.587-.505-.9a4.314,4.314,0,0,0-.346-.577,2.846,2.846,0,0,0,.247.514m18.528.078c-.317.561-.472.869-.363.721a6.744,6.744,0,0,0,.548-1,1.338,1.338,0,0,0-.185.28m2.4.093c-.07.137-.113.249-.1.249a.877.877,0,0,0,.158-.249c.07-.137.113-.249.1-.249a.877.877,0,0,0-.158.249m-.906,1.636-.1.2.127-.156c.122-.15.162-.249.1-.249a.617.617,0,0,0-.128.2m-2.635.2c-.039.086-.061.156-.048.156a.6.6,0,0,0,.125-.156c.056-.086.078-.156.048-.156s-.086.07-.125.156m1.893,1c-.059.09-.094.176-.079.191s.076-.046.135-.135.094-.176.079-.191-.076.046-.135.135m-17.108.76c.159.265.245.373.245.307a2.241,2.241,0,0,0-.356-.541c-.015,0,.035.105.112.234m14.133-.125c-.051.06-.176.235-.277.39-.258.392-.283.436-.254.436a4.233,4.233,0,0,0,.347-.467c.308-.448.381-.59.184-.358m-13.8.7a.537.537,0,0,0,.128.187c.017,0-.012-.084-.066-.187a.537.537,0,0,0-.128-.187c-.017,0,.012.084.066.187m15.849.066c-.058.1-.083.183-.056.183.051,0,.214-.313.18-.347-.01-.01-.066.063-.124.164m-2.777.245c-.043.069-.056.125-.03.125s.083-.056.126-.125.056-.125.03-.125-.083.056-.126.125m-12.755.25a.991.991,0,0,0,.192.29,2.172,2.172,0,0,0-.332-.6,1.056,1.056,0,0,0,.14.312m14.833.53c-.091.12-.144.218-.116.217s.113-.1.191-.218c.181-.28.14-.28-.074,0m-14.434.185a1.349,1.349,0,0,0,.125.234c.146.24.167.186.03-.079-.086-.165-.154-.234-.154-.154m11.047.813c-.181.28-.14.28.074,0,.091-.12.144-.218.116-.217s-.113.1-.191.218m-.266.326a4.016,4.016,0,0,1-.374.509,3.343,3.343,0,0,0-.372.518c0,.031.144-.136.321-.369s.378-.488.447-.565.094-.14.053-.14-.074.021-.075.047m1.56,1.512a2.118,2.118,0,0,0-.33.5c.027,0,.111-.092.187-.2s.237-.335.359-.5a1.255,1.255,0,0,0,.193-.3,4.78,4.78,0,0,0-.409.5m-2.575-.182c-.1.134-.161.244-.143.244a1.439,1.439,0,0,0,.343-.464c-.013-.013-.1.086-.2.22m-8.017,1.006a1.545,1.545,0,0,0,.223.527.837.837,0,0,0-.1-.3c-.067-.151-.124-.254-.126-.228m9.3.858c-.043.069-.056.125-.03.125s.083-.056.126-.125.056-.125.03-.125-.083.056-.126.125m-8.9.17a3.856,3.856,0,0,0,.344.791,2.785,2.785,0,0,0-.159-.467c-.164-.405-.263-.579-.185-.324m6.072,0c-.179.216-.255.327-.224.327a1,1,0,0,0,.2-.218c.17-.223.19-.307.027-.109m-.566.748c-.311.41-.38.514-.338.514a3.431,3.431,0,0,0,.347-.436c.382-.525.374-.584-.009-.078m2.563.218c-.336.437-.344.449-.264.4a3.3,3.3,0,0,0,.494-.666,1.655,1.655,0,0,0-.23.265m-3.03.436c-.27.353-.413.564-.359.532a2.863,2.863,0,0,0,.446-.61c-.015,0-.054.035-.087.078m2.511.265c-.091.12-.144.218-.116.217s.113-.1.191-.218c.181-.28.14-.28-.074,0m-1.686,2.445-.109.173.144-.139c.079-.076.129-.154.109-.173s-.084.043-.144.139m-2.821.251c-.342.549-.462.764-.429.764a1.847,1.847,0,0,0,.248-.367c.118-.2.263-.44.322-.53s.093-.163.075-.163a1.368,1.368,0,0,0-.216.3m2.442.339c-.13.216-.276.456-.326.533s-.074.14-.055.14a2.074,2.074,0,0,0,.266-.39,5.531,5.531,0,0,1,.326-.5c.051-.06.078-.125.059-.144s-.141.143-.271.359m-3.949-.218c.014.162.112.3.116.163a.224.224,0,0,0-.058-.175c-.034-.021-.06-.016-.058.012m.125.436c.014.162.112.3.116.163a.224.224,0,0,0-.058-.175c-.034-.021-.06-.016-.058.012m.125.436c.014.162.112.3.116.163a.224.224,0,0,0-.058-.175c-.034-.021-.06-.016-.058.012m3.141.284-.1.2.127-.156c.122-.15.162-.249.1-.249a.617.617,0,0,0-.128.2m-2.989.242c.071.233.138.267.216.108.068-.14.067-.141-.025-.026s-.1.119-.1-.012a.228.228,0,0,0-.069-.175c-.047-.029-.055,0-.024.105m2.626.382-.112.2.129-.156c.114-.138.165-.249.113-.249a1.018,1.018,0,0,0-.13.2m-1.133,2.109a.455.455,0,0,0-.075.217c.014.014.071-.073.128-.193.128-.269.084-.289-.053-.025m-.357.751a.775.775,0,0,0-.105.261c0,.04.06-.035.129-.167.151-.285.131-.364-.024-.094m-.207.451a1.443,1.443,0,0,0-.012.39l.02.3.03-.39c.03-.394.022-.46-.038-.3M140,98.7a2.389,2.389,0,0,0,.047.436c.068.328.074.033.007-.343-.037-.21-.051-.234-.054-.093m.13,1.247c0,.24.018.619.043.841l.046.405,0-.405c0-.223-.018-.6-.043-.841l-.045-.436,0,.436m.056,2.711a3.565,3.565,0,0,1-.044.436l-.032.156.067-.153a1.134,1.134,0,0,0,.044-.436l-.023-.283-.012.28m-2.308.068c-.081.066-.123.118-.093.117.076,0,.3-.178.267-.21-.015-.015-.093.027-.174.093m1.238.945c0,.064.385.057.49-.009.054-.034-.019-.051-.2-.046-.158,0-.288.029-.288.055" transform="translate(-14.569 -16.458)" fill="#c62f04" fill-rule="evenodd"/>
  </g>
</svg>
